<?xml version="1.0" encoding="utf-8"?>
<!-- Generator: Adobe Illustrator 21.0.0, SVG Export Plug-In . SVG Version: 6.00 Build 0)  -->
<svg version="1.1" id="Layer_1" xmlns="http://www.w3.org/2000/svg" xmlns:xlink="http://www.w3.org/1999/xlink" x="0px" y="0px"
	 viewBox="0 0 681.1 195.4" style="enable-background:new 0 0 681.1 195.4;" xml:space="preserve">
<style type="text/css">
	.st0{fill:#FFFFFF;}
</style>
<title>GCNLogo</title>
<path class="st0" d="M379.6,126.2"/>
<path class="st0" d="M236.6,184c3.9,0,7.7-1.6,10.4-4.3l1.6-8.8h-10.9l-0.8,4.2h6l-0.5,2.8c-1.5,1.1-3.3,1.7-5.2,1.8
	c-4.1,0-6.6-3.2-5.9-7.5c0.6-4.2,4.2-7.4,8.5-7.5c2.1-0.1,4,1.1,4.9,3l4.4-2.2c-1.2-2.7-3.8-5.1-8.6-5.1c-7-0.1-13,5-14.3,11.9
	C225.2,179.3,229.8,184,236.6,184 M263.7,183.6l0.8-4.3h-9.7l3.3-18.6h-4.9l-4,22.9H263.7z M275.1,184c6.9,0,12.9-5,14.1-11.8
	c1.2-6.9-2.9-11.9-9.9-11.9c-6.9,0-12.8,5-14,11.9C264.1,179,268.3,184,275.1,184 M275.9,179.6c-4.2,0-6.3-3.3-5.6-7.5
	s4-7.5,8.2-7.5s6.4,3.2,5.7,7.5S280.1,179.6,275.9,179.6 M302.2,183.6c3.8,0.2,7.1-2.5,7.8-6.2c0.5-2.9-1-5.2-3.4-5.6
	c2.5-0.6,4.5-2.7,4.9-5.2c0.5-3-1.2-5.8-5.5-5.8h-12l-4,22.9L302.2,183.6z M303.2,169.8h-6.1l0.9-5h6.1c1.1-0.2,2.1,0.6,2.3,1.7
	c0,0.3,0,0.5,0,0.8C306,168.8,304.7,169.9,303.2,169.8 M301.7,179.3h-6.3l0.9-5.3h6.3c1.9,0,2.7,1.2,2.5,2.7
	C304.9,178.3,303.4,179.4,301.7,179.3 M333.2,183.5l-4.8-22.9h-6.1l-12.9,22.9h5.6l2.1-3.9h9.8l0.7,3.9H333.2z M326.4,175.4h-7.2
	l5.3-9.9L326.4,175.4z M349.9,183.5l0.8-4.3H341l3.3-18.6h-4.9l-4,22.9H349.9z M373.1,183.9c4.2,0,8.2-2.1,10.6-5.6l-3.8-2
	c-1.4,2-3.6,3.2-6,3.3c-4.1,0-6.6-3.2-5.8-7.5c0.6-4.2,4.2-7.4,8.5-7.5c2.2-0.1,4.1,1.3,4.8,3.3l4.5-2.1c-1.1-2.9-3.5-5.6-8.6-5.6
	c-7,0-13,5-14.2,11.8C361.8,179.1,366.2,183.9,373.1,183.9 M395.9,183.5l1.6-9.4l11.1-13.5h-5.6l-7.2,9.2l-4.1-9.2h-5.6l6.4,13.5
	l-1.6,9.4L395.9,183.5z M415,183.9c4.2,0,8.2-2.1,10.6-5.6l-3.8-2c-1.4,2-3.6,3.2-6,3.3c-4.1,0-6.6-3.2-5.8-7.5
	c0.6-4.2,4.2-7.4,8.5-7.5c2.1,0,4.1,1.3,4.8,3.3l4.6-2.1c-1.1-2.9-3.5-5.6-8.6-5.6c-7,0-13,5-14.3,11.9
	C403.7,179.1,408.1,184,415,183.9 M441.6,183.6l0.8-4.3h-9.6l3.3-18.6h-4.9l-4,22.9H441.6z M452.7,160.7h-4.9l-4,22.9h4.9
	L452.7,160.7z M472.4,183.6l4-22.9h-4.8l-2.5,14.3l-8.1-14.4h-5l-4,22.9h4.9l2.6-14.9l8.3,14.9L472.4,183.6z M486.8,184
	c3.9,0,7.7-1.6,10.5-4.3l1.5-8.8h-10.9l-0.8,4.2h6l-0.5,2.8c-1.5,1.1-3.3,1.7-5.2,1.8c-4.1,0-6.6-3.2-5.8-7.5
	c0.6-4.2,4.2-7.4,8.5-7.5c2.1-0.1,4,1.1,4.9,3l4.4-2.2c-1.2-2.7-3.8-5.1-8.6-5.1c-7-0.1-13,5-14.3,11.9
	C475.4,179.3,480,184,486.8,184 M529.7,183.6l4-22.9h-4.9l-2.5,14.3l-8.1-14.4h-5l-4,22.9h4.9l2.6-14.9l8.2,15L529.7,183.6z
	 M549.2,183.6l0.8-4.3h-11.3l0.9-5.2h11.1l0.8-4.3h-11.1l0.8-4.8h11.3l0.8-4.3h-16.2l-4,22.9L549.2,183.6z M563.2,183.6l3.3-18.6
	h6.7l0.8-4.3h-18.2l-0.8,4.3h6.7l-3.3,18.6H563.2z M596.5,183.6l10.6-22.9h-5.5l-6.9,16.5l-1.4-16.5h-3.8l-7.3,16.5l-1.1-16.5h-5.5
	l2.5,22.9h5.2l6.8-15.7l1.2,15.7H596.5z M615,184c6.9,0,12.9-5,14-11.8c1.2-6.9-3-11.9-9.9-11.9c-6.9,0-12.8,5-14,11.9
	C603.9,179,608.1,183.9,615,184 M615.7,179.6c-4.2,0-6.3-3.3-5.6-7.5s4-7.5,8.2-7.5s6.4,3.2,5.7,7.5S619.9,179.6,615.7,179.6
	 M647.8,183.5l-3.6-8.7c3.3-0.8,5.7-3.5,6.2-6.8c0.8-4.2-1.6-7.4-6.4-7.4h-10.7l-4,22.9h4.8l1.4-8.1h3.6l3,8.1H647.8z M641.4,171.1
	h-5.1l1.1-6.2h5.1c1.9,0,3.2,1.1,2.9,3.1C645,169.9,643.3,171.2,641.4,171.1 M669.7,183.6l-7.6-12.2l11-10.7h-6l-9.9,10.2l1.8-10.2
	h-4.9l-4,22.9h4.9l1.2-7l2.2-2.1l5.3,9.2L669.7,183.6z"/>
<path class="st0" d="M655.2,11.5l-14.7,83.3c-1,5.1-5.4,8.9-10.7,9.1c-2.6,0.1-5.1-1.3-6.3-3.7L585.2,26c-5-9.1-14.6-14.6-25.8-14.6
	c-18.9,0-37,15.4-40.3,34.2l-14.9,84.2h25.9L545,46.4c1-5.1,5.4-8.9,10.7-9.1c2.7-0.1,5.1,1.4,6.3,3.7l38.2,74.3
	c5,9.1,14.6,14.6,25.8,14.6c18.9,0,37-15.4,40.3-34.2l14.8-84.1L655.2,11.5z"/>
<path class="st0" d="M401.3,46.5c0.9-4.9,5.8-9.1,10.6-9.1h96.8l4.6-25.8h-97.5c-18.9,0-36.6,14.8-40.1,33.6c0,0.1,0,0.1-2.2,12.3
	h-66.8l-4.6,25.9h45.1L345.2,95c-1,5.1-5.5,8.9-10.7,9.1h-81.8c-2.1,0.1-4.1-0.8-5.4-2.4c-1.3-1.7-1.9-3.9-1.4-6l8.7-49.2
	c1-5.1,5.4-8.9,10.7-9.1H365l4.5-25.8H269c-18.9,0-36.9,15.4-40.3,34.2L220.1,95c-1.7,9.4,0.5,18.2,6.1,24.9s13.5,10.1,22.7,10.1
	h81.8c14.8,0,29.2-9.5,36.2-22.7c0.9,4.7,3,9,6.1,12.7c5.4,6.4,13.5,9.9,22.6,9.9h96.8l4.6-25.9h-97.5c-2.1,0.1-4.1-0.8-5.4-2.4
	c-1.3-1.7-1.9-3.9-1.4-6L401.3,46.5z"/>
<path class="st0" d="M4.3,110.3c5.7,3.9,4.7-14.7,12.7-8.4l0.3,0.2l-0.4-0.3c4.9,5,3.6,16.3-5.1,24l0,0c-1.9,1.7-2.6,5.7,1.1,13.1
	c1.4,2.7,3,5.1,5,7.4c1.6,1.8,6,5.8,8.7,4.4c2.3-1.1,1.6-4.3,4.5-5.2c7.4-2.2,17.2,6.8,21.1,12.2c4.2,5.8,4.4,15.8-5.5,12.8
	c-2.4-0.7-16.1-11.4-18.4-9.3s7.4,10,8.8,11c1.8,1.4,12.2,8.5,13.1,6.3c1.7-4.4,12.8,2.1,19.7,3.7c6.6,1.6,19.8-0.8,11.3-9.6
	c-5.1-5.3-12.9-6.1-17.5-12c-5.7-7.5,0.9-13.2-0.8-21c-1.6-7-6.8-12.7-13.6-15c-3.8-1.2-8.2-0.9-11.2,1.9c-2.3,2.2-2.6,5.8-5.5,7.6
	c-1.6,1.2-3.8,1.3-5.6,0.5c-6.5-3.7-3.1-12.6,0.9-18.4c2.4-3.5,5.2-5.3,7.2-6.8c0.3-0.3,0.7-0.5,1-0.8c0,0,0-0.1,0.1-0.1
	c2.9-2.9,4.5-7.4,4.8-11.3c0.5-6-1.4-13.3-6.9-16.5c-7.2-4.2-11.1,2.3-15.5,6.6c-2.5,2.4-6.4,4-8.7,0.4c-0.5-0.7-1.3-2.2-2-3.3
	c-5.8-9.3,4.7-15.4,9.2-22.8c6.4-10.4,2.6-16.3,9.2-23c6-6,13.5-5.5,22.1-14.6c1.9-2,6.9-9.3,0.3-8.2c-10.1,1.7-20.8,14.1-27,21.6
	C15.3,45.3,12.2,48.3,8,59.8c-2.5,6.8-5.4,22-6.7,27.1C-0.9,95.2-0.5,107,4.3,110.3 M46.2,176c-1.3,0.4-3.7-1.3-4.7-1.9
	c-2.9-1.8-5.6-3.9-8-6.3c-0.3-0.3-3.2-3.5-1.3-3.3c1.6,0.3,3,1,4.3,1.9c1.5,0.9,3,2,4.4,3.1c0.6,0.5,1.3,1,1.9,1.6
	c0.2,0.2,1.2,1.3,1.4,1.3l0.1,0.1c0,0,0,0,0-0.1C44.7,172.9,47.3,175.6,46.2,176 M60.2,170.2c1.6-1.4,4.1-1.4,6.2-1.2
	c4.1,0.4,8.7,2.3,11.4,5.6c-0.1,0,0,0,0,0.1c1.1,1.4,1.8,3.5,0.3,4.9s-4.2,1.4-6.1,1.2c-4.1-0.5-8.7-2.3-11.3-5.5
	C59.4,173.8,58.6,171.7,60.2,170.2 M46.2,129.4c2.5,0.1,4.9,1.1,6.8,2.7c1.8,1.4,3.8,3.7,4.4,5.9l0,0c1.9,4.8,0,10.9-6,10.8
	c-5-0.1-9.5-4.2-11.2-8.6C38.4,135.4,40.3,129.3,46.2,129.4 M24.8,145.1c-0.3,2.3-2.3,2.1-3.9,1.1c-3.1-2.1-5.2-6-6.5-9.4
	c-0.7-1.7-1-3.5-0.9-5.4c0.3-2.3,2.3-2.1,3.9-1.1c1.6,1.2,3,2.7,4,4.4c0.5,0.8,0.9,1.6,1.4,2.4c0.5,0.8,0.8,1.7,1.1,2.6
	c0,0,0,0,0,0.1c0,0,0,0,0-0.1C24.7,141.5,25,143.3,24.8,145.1 M26.1,134.4c0.4,0.2,0.7,0.4,1.1,0.6
	C26.8,134.8,26.5,134.6,26.1,134.4 M29.2,85c5.3,0.2,7.6,6.4,7.6,10.9l0,0c-0.1,4.4-2.7,10.7-8,10.5s-7.6-6.4-7.5-10.9
	S23.8,84.8,29.2,85 M34.6,26.5c1.2-1.4,2.5-2.6,3.9-3.7c2.2-1.7,6.4-5.2,9.3-3.7c1,1.2-1,3.6-1.7,4.5c-1.1,1.4-2.4,2.6-3.8,3.8
	c-1.4,1.2-2.9,2.2-4.5,3c-1,0.5-3.8,2-4.8,0.8S33.8,27.4,34.6,26.5 M9.6,61.1c0.5-1.9,1.1-3.7,1.9-5.5c0.5-1.1,5.1-9.9,6.7-7.5
	c2.3,3-5.9,19.2-8.5,17.3C8.6,64.7,9.4,62.1,9.6,61.1 M1.3,93.9c0.1-1.7,0.6-3.4,1.2-5c0.9-1.8,3.1-2.3,4.2-0.4
	c1.8,3.1,1.8,7.3,1.5,10.8l0,0c-0.1,1.8-0.6,3.5-1.3,5.2c-0.9,1.8-2.4,3-3.8,1.2C1.7,103.6,0.9,97.4,1.3,93.9"/>
<path class="st0" d="M74.3,25.9c-3.2,3-7.2,5.1-11.5,6c-5.2,1.1-10,0-14.9,2.7c-7.8,4.3-16.1,16-7.9,22.8c3.3,2.7,8,2,11.5,4.6
	c3.8,2.8,5.8,7.5,5.1,12.2c-0.5,4.4-2.4,8.1-1.6,12.7c0.8,4.7,3.6,8.8,7.7,11.2c9.1,5.4,18.4,0.3,23.7-7.6
	c4.4-6.7,10.8-16.6,20.2-15.1c8.7,1.4,15.5,9.4,16.2,18c0.7,8.7-4.1,18.1-13.1,20.1c-5.2,1.2-9.2-1-14.1-2c-4.8-1-9.9,0-13.9,2.8
	c-7.1,5.1-8.8,15-3.7,22.1c0,0.1,0.1,0.1,0.1,0.2c5.2,6.9,15.3,7.1,18.9,15.7c1.8,4.2,0.5,7.5-1.2,11.4c-1.9,4.1-0.3,8.4,3.3,10.8
	c7.4,4.9,19.4,2.9,25.4-3.5c2.7-2.8,4.6-5.8,7.9-7.9c3.6-2.5,7.8-3.9,12.2-4.1c4-0.1,10.5,1,9.1,6.5c-0.6,2.1-1.5,4.1-2.6,6
	c-1.8,3.3-3.3,6.3-6.2,8.1c-4,2.5-8.1,0.9-13.6,1.3c-4.9,0.5-9.6,2.2-13.6,5c-12.5,9.4-12.7,4.9-26.2,2.1
	c-7.2-1.5-16.6,0.5-15.5,3.1s11.6,3.9,13.9,4.1c23.4,1.6,50-4.1,74-25.3c2.3-2,4.3-4.3,5.7-7c3.1-5.4-2.6-4.1-4-4.1
	c-1.6-0.1-2.7-0.2-3.1-1.4c-1.6-3.9,4.5-11,5-18.3c0.3-5.1-3.5-8.1-8-7.9s-9.7,1.4-16.8,11.4c-5.8,8.1-12,14.2-22,13
	c-10.4-1.2-16.6-10.3-12.7-20.3c3.4-8.7,12-14.6,21.4-13.8c4.7,0.4,8.5,1.9,13.2,0c4.4-1.9,7.8-5.4,9.5-9.8c3.4-8.5,0-19.3-8.9-22.7
	c-4.3-1.6-8-3.4-10.5-7.5c-2.5-4.2-3-9.3-1.3-13.9c3.1-9-3.2-18.4-11.9-21.1c-4.1-1.3-8.5-1.2-12.5,0.5c-5,2.2-6.6,5.9-9.1,10.4
	c-4.8,8.4-15.9,10.7-24.8,9C62.5,64.2,59.9,53.5,64.7,45c4.9-8.8,14.2-11,23.5-9.7c7,1,21.8-2.2,20.3-12.1c-0.6-4.2-4.8-6.8-8.5-7.9
	c-3.6-1-9.8-1.1-11.9-4.9c-1.2-2.2,0.1-8.4,9.6-8.6c8.6-0.2,8,6.1,18.3,8.1c14.8,2.9,16.2-2.2,21.9,0.8c3.4,1.8,6.7,5.7,8.8,8.9
	c0.9,1.4,1.8,3.4,0.9,4.9c-1.2,2-4.3,1.6-6.4,1.4c-4-0.5-8.6,0.9-9.5,5.4s1.7,9.1,4.6,12.3c6.2,6.9,16.1,7.3,21.4,15.2
	c2.4,3.3,3.2,7.6,1.9,11.6c-1.2,4.4-1,9.1,0.6,13.4c2.1,6.2,10,14.8,16,10.6c1.1-0.8,2.1-1.9,2.8-3.1c2.3-3.9,1.8-8.3,2.2-12.7
	c0.1-1.7,0.7-5.9,2.3-7.8c0.7-0.9,2-1.2,3.1-0.7h0.1c3.7,1.5,7.9,14.6,6.6,25.6c-0.2,1.9-0.5,6.1-2.4,7.6c-0.8,0.7-1.9,0.8-2.9,0.3
	c-1.4-0.6-2.8-0.1-4.1,1c-2,1.8-3.6,5-4.3,6.7c-1.9,4.2-2.9,8.7-3,13.2c-0.1,3,0.7,9.7,5.9,8.6c0.1,0,0.1,0,0.1-0.1
	c6.2-1.4,10.2-10.5,12-22.9c2.1-14.8,0.5-34.2-6.8-50.5c-0.1-0.2-0.2-0.5-0.3-0.7c-1-2.6-2.3-5.1-3.7-7.5c-0.5-0.9-1.1-1.8-1.8-2.7
	c-1-1.7-2.4-3.2-4-4.3c-0.8-0.5-1.4-0.5-1.8-0.2c-0.8,0.6-0.8,2.5-0.7,3.7c0.6,4.3,2.8,8.3,2.6,12.8c-0.1,1.8-0.6,2.9-1.5,3.5
	c-1.8,1.2-4.9-0.2-7.1-2.1c-2.9-2.3-5.4-5.1-7.4-8.3l0,0c-3.4-5.9-2.2-10.7-4.6-17c-0.5-1.4-1.7-4.2-0.8-5.6
	c0.9-1.6,3.2-1.2,4.7-0.6c1.1,0.4,3.8,2.1,5.1,1.2s-1.6-4.1-2.2-4.8c-9.5-10.7-40.8-32.2-82.2-25.5c-6.3,1-17.6,3.6-18.5,8.7
	c-0.1,0.8,0.8,1.5,2.9,1.8c3.6,0.5,8.4-0.5,11,2.7C80.7,18.1,77,23.3,74.3,25.9 M88.7,194.1c-5.2-0.6-9.3-2-9.2-3.2s4.5-1.8,9.7-1.2
	s9.3,2,9.2,3.2S93.9,194.6,88.7,194.1 M133.8,186.9c-1.6,1-3.3,1.8-5.1,2.4c-1.8,0.6-3.6,1.1-5.5,1.4c-1.5,0.2-3.4,0.6-4.8-0.2
	c-2.8-1.5,2.8-4.9,6.6-6.1c1.8-0.6,3.6-1.1,5.5-1.4c1.5-0.4,3.1-0.3,4.6,0.1C137.1,183.9,135.5,185.8,133.8,186.9 M167,162.4
	L167,162.4c0.1,1.5-1.4,3.1-2.2,4.2c-1.2,1.5-2.6,2.9-4,4.1c-0.7,0.6-8.6,6.7-8.8,4.1c-0.1-1.5,1.4-3.2,2.2-4.2
	c1.2-1.5,2.6-2.9,4-4.1C158.9,165.9,166.8,159.8,167,162.4 M151.5,138.4c3.4-2.5,10.1-4.1,11.5,1.4c1.2,4.8-2.4,10-6.1,12.7
	c-3.5,2.5-10.2,4.1-11.5-1.6C144.3,146.2,147.8,141,151.5,138.4 M96.3,138.1c-5.9,2-12.3-0.8-14.9-6.3c-2.2-5.5,0.4-11.7,5.8-13.9
	c0.3-0.1,0.5-0.2,0.8-0.3c5.3-1.8,13,0.6,14.9,6.3c2.3,5.4-0.3,11.7-5.7,14C96.9,138,96.6,138.1,96.3,138.1 M108.9,159.5
	c4.1-1,10.4-0.6,12.6,3.7l0,0c2.6,5-3.4,9.2-7.5,10.3s-11.2,0.9-13.2-3.9C98.5,164.4,104.7,160.5,108.9,159.5 M132.3,95.6
	c4.6-3.2,11-2,14.1,2.6c0.3,0.4,0.5,0.8,0.7,1.3c1.4,2.6,1.7,5.7,0.9,8.5c-0.7,2.8-2.5,5.3-4.9,7c-4.6,3.2-11,2-14.1-2.7
	c-0.2-0.3-0.4-0.6-0.5-0.9C125.6,106,127.2,99.2,132.3,95.6 M110.4,51c2.8-0.9,5.8-0.8,8.5,0.3c2.7,1.2,4.9,3.1,6.3,5.7
	c2.6,4.9,0.8,10.9-4.1,13.5c-0.3,0.2-0.7,0.3-1,0.5c-5.8,2.1-12.3-0.3-15.3-5.8c-2.6-4.9-0.8-10.9,4.1-13.5
	C109.4,51.4,109.9,51.2,110.4,51 M54.8,51.5c-3.4,2.7-10.1,4.9-12.8,0.2c-2.6-4.5,1.3-10.1,4.8-12.7s10.1-4.4,12.5,0.4
	c0,0.1,0.1,0.1,0,0C61.4,43.7,58.1,48.9,54.8,51.5 M68.3,72.2c5.7-1.8,11.7,1.4,13.4,7.1c0.1,0.4,0.2,0.8,0.3,1.2
	c0.1,1.3,0.1,2.6,0.1,3.9c-0.2,1.5-0.7,2.9-1.5,4.1c-1.5,2.6-3.9,4.5-6.7,5.4c-5.7,1.7-11.7-1.5-13.4-7.2c-0.1-0.2-0.1-0.4-0.2-0.7
	C59,80.2,62.4,74.2,68.3,72.2 M187.1,124.4c-0.9,1.8-2.4,3.8-4.4,4.1s-2.6-2.1-2.9-3.6c-0.5-4.2,0.3-8.4,2.2-12.1
	c0.6-1.3,1.4-2.5,2.4-3.6c0.5-0.4,1-0.7,1.6-0.9c2.2-0.5,3.5,2.3,3.6,3.8C190,116.5,189.1,120.7,187.1,124.4 M178.9,48.5
	c0.3-0.2,0.7-0.1,1.2,0.3c1.5,1.2,2.7,2.8,3.6,4.5c1.9,3,3.2,6.3,4,9.8c0.1,0.7,0.4,2.7-0.3,3.2c-0.3,0.1-0.6,0.1-0.9-0.1
	c-1.6-0.8-2.8-2.8-3.7-4.3c-2.1-3.2-3.6-6.9-4.3-10.7C178.3,50.3,178.3,48.9,178.9,48.5 M164.9,70.7c0.4-0.6,0.8-1,1.4-1.4
	c3.3-2.5,7.7,0.8,9.6,4.2c0.6,0.8,1,1.8,1.2,2.8c0.4,1.3,0.7,2.6,0.8,4c0.3,2.5-0.3,5.1-1.6,7.3c-0.4,0.5-0.8,0.9-1.3,1.3
	c-3.2,2.4-7.5-0.5-9.4-3.8C163.1,81.1,162,74.8,164.9,70.7 M152.9,46.2c-4.4,1.9-9.9-1.4-12.8-4.5c-2.8-2.9-5.9-9.9-0.3-11.8
	c4.4-1.5,9.4,1.7,12.4,4.7C154.7,37.4,158,43.9,152.9,46.2 M151.8,17.8c1.7,0.9,3.3,2,4.8,3.2c1.3,0.9,2.5,1.9,3.6,3
	c1.1,1,2.8,2.5,3,4s-3.3-0.1-3.7-0.4c-1.7-0.9-3.3-1.9-4.8-3.1c-1.4-1-2.8-2.2-4.1-3.4c-1.1-1-2.8-2.5-3.1-4S151.3,17.5,151.8,17.8
	 M118.4,3.3c5.3,1.1,9.4,3,9.1,4.3s-4.8,1.3-10,0.2s-9.3-3-9.1-4.3S113.2,2.2,118.4,3.3 M88.3,18c4.3-1.4,10.5-1.1,13.6,2.7l0,0
	c3.4,4.2-1.1,8.4-4.9,9.8c-4.4,1.6-10.8,1.4-14-2.4C79.3,23.7,84.3,19.3,88.3,18 M67.9,9c-2.4-1.9,3.8-4.4,7.7-5.5
	c2-0.5,4-0.9,6.1-1c1.5-0.1,3.9-0.1,4.9,1.2c0.2,1.6-3.1,3.8-7.5,4.9C72.5,10.3,68.5,9.4,67.9,9"/>
</svg>
