<?xml version="1.0" encoding="utf-8"?>
<!-- Generator: Adobe Illustrator 21.0.0, SVG Export Plug-In . SVG Version: 6.00 Build 0)  -->
<svg version="1.1" id="Layer_1" xmlns="http://www.w3.org/2000/svg" xmlns:xlink="http://www.w3.org/1999/xlink" x="0px" y="0px"
	 viewBox="0 0 461.5 118.5" style="enable-background:new 0 0 461.5 118.5;" xml:space="preserve">
<style type="text/css">
	.st0{fill:#E50004;}
</style>
<title>GCNLogoTxt</title>
<path class="st0" d="M160.1,114.7"/>
<path class="st0" d="M435.6,0.1L421,83.5c-1,5.1-5.5,8.9-10.7,9.1c-2.7,0.1-5.1-1.3-6.3-3.7l-38.3-74.3C360.7,5.4,351.1,0,340,0
	c-18.9,0-37,15.4-40.3,34.2l-14.9,84.2h25.9L325.5,35c1-5.1,5.4-8.9,10.7-9.1c2.6-0.1,5.1,1.4,6.3,3.7l38.2,74.3
	c5,9.1,14.6,14.6,25.8,14.6c18.9,0,37-15.4,40.3-34.2l14.8-84.1h-26V0.1z"/>
<path class="st0" d="M181.8,35.1c0.9-4.9,5.8-9.1,10.6-9.1h96.8l4.6-25.8h-97.5c-18.9,0-36.6,14.8-40.1,33.6c0,0.1,0,0.1-2.2,12.4
	H87.2l-4.6,25.9h45.1l-2.1,11.7c-1,5.1-5.5,8.9-10.7,9.1H33.2c-2.1,0.1-4.1-0.8-5.5-2.4c-1.3-1.7-1.9-3.9-1.4-6L35,35.1
	c1-5.1,5.4-8.9,10.7-9.1h99.9l4.5-25.8H49.5c-18.9,0-36.9,15.4-40.3,34.2L0.5,83.6C-1.1,93,1,101.8,6.6,108.4s13.5,10.1,22.7,10.1
	h81.8c14.8,0,29.2-9.5,36.2-22.7c0.9,4.7,3,9.1,6.1,12.7c5.4,6.4,13.5,9.9,22.6,9.9h96.8l4.6-25.9H180c-2.1,0.1-4.1-0.8-5.4-2.4
	c-1.3-1.7-1.9-3.9-1.4-6L181.8,35.1z"/>
</svg>
